HIERARCHY
ROOT Hips
{
	OFFSET 0.00000 0.00000 0.00000
	CHANNELS 6 Xposition Yposition Zposition Zrotation Yrotation Xrotation 
	JOINT LHipJoint
	{
		OFFSET 0 0 0
		CHANNELS 3 Zrotation Yrotation Xrotation
		JOINT LeftHip
		{
			OFFSET 1.54859 -1.61379 0.86856
			CHANNELS 3 Zrotation Yrotation Xrotation
			JOINT LeftKnee
			{
				OFFSET 2.25087 -6.18423 0.00000
				CHANNELS 3 Zrotation Yrotation Xrotation
				JOINT LeftAnkle
				{
					OFFSET 2.40328 -6.60297 0.00000
					CHANNELS 3 Zrotation Yrotation Xrotation
					JOINT LeftToe
					{
						OFFSET 0.17435 -0.47901 2.02453
						CHANNELS 3 Zrotation Yrotation Xrotation
						End Site
						{
							OFFSET 0.00000 -0.00000 1.04844
						}
					}
				}
			}
		}
	}
	JOINT RHipJoint
	{
		OFFSET 0 0 0
		CHANNELS 3 Zrotation Yrotation Xrotation
		JOINT RightHip
		{
			OFFSET -1.54669 -1.61379 0.86856
			CHANNELS 3 Zrotation Yrotation Xrotation
			JOINT RightKnee
			{
				OFFSET -2.28132 -6.26789 0.00000
				CHANNELS 3 Zrotation Yrotation Xrotation
				JOINT RightAnkle
				{
					OFFSET -2.51636 -6.91365 0.00000
					CHANNELS 3 Zrotation Yrotation Xrotation
					JOINT RightToe
					{
						OFFSET -0.15124 -0.41552 2.21090
						CHANNELS 3 Zrotation Yrotation Xrotation
						End Site
						{
							OFFSET -0.00000 -0.00000 1.13399
						}
					}
				}
			}
		}
	}
	JOINT lowerback
	{
		OFFSET 0 0 0
		CHANNELS 3 Zrotation Yrotation Xrotation
		JOINT Chest
		{
			OFFSET -0.04287 2.26161 -0.25690
			CHANNELS 3 Zrotation Yrotation Xrotation
			JOINT Chest2
			{
				OFFSET 0.02248 2.28395 -0.10140
				CHANNELS 3 Zrotation Yrotation Xrotation
				JOINT lowerneck
				{
					OFFSET 0 0 0
					CHANNELS 3 Zrotation Yrotation Xrotation
					JOINT Neck
					{
						OFFSET -0.11644 1.38496 0.11345
						CHANNELS 3 Zrotation Yrotation Xrotation
						JOINT Head
						{
							OFFSET 0.29383 1.36600 0.06642
							CHANNELS 3 Zrotation Yrotation Xrotation
							End Site
							{
								OFFSET 0.11075 1.41395 -0.00294
							}
						}
					}
				}
				JOINT LeftCollar
				{
					OFFSET 0 0 0
					CHANNELS 3 Zrotation Yrotation Xrotation
					JOINT LeftShoulder
					{
						OFFSET 3.51628 0.59542 -0.30346
CHANNELS 3 Zrotation Xrotation Yrotation
						JOINT LeftElbow
						{
OFFSET 0 -4.764050 0.000000
CHANNELS 3 Zrotation Xrotation Yrotation
							JOINT LeftWrist
							{
OFFSET 0 -3.137590 -0.000000
CHANNELS 3 Zrotation Xrotation Yrotation
								JOINT lhand
								{
									OFFSET 0 0 0
CHANNELS 3 Zrotation Xrotation Yrotation
									JOINT LFingers
									{
OFFSET 0 -0.732260 -0.000000
CHANNELS 3 Zrotation Xrotation Yrotation
										End Site
										{
OFFSET 0 -0.590370 -0.000000
										}
									}
								}
								JOINT LThumb
								{
OFFSET 0 0.000000 0.000000
CHANNELS 3 Zrotation Xrotation Yrotation
									End Site
									{
OFFSET 0 -0.599380 0.599380
									}
								}
							}
						}
					}
				}
				JOINT RightCollar
				{
					OFFSET 0 0 0
					CHANNELS 3 Zrotation Yrotation Xrotation
					JOINT RightShoulder
					{
						OFFSET -3.30990 0.84213 -0.36430
CHANNELS 3 Zrotation Xrotation Yrotation
						JOINT RightElbow
						{
OFFSET 0 -5.101610 -0.000000
CHANNELS 3 Zrotation Xrotation Yrotation
							JOINT RightWrist
							{
OFFSET 0 -3.232670 -0.000000
CHANNELS 3 Zrotation Xrotation Yrotation
								JOINT rhand
								{
									OFFSET 0 0 0
CHANNELS 3 Zrotation Xrotation Yrotation
									JOINT RFingers
									{
OFFSET 0 -0.702000 -0.000000
CHANNELS 3 Zrotation Xrotation Yrotation
										End Site
										{
OFFSET 0 -0.565970 -0.000000
										}
									}
								}
								JOINT RThumb
								{
OFFSET 0 0.000000 0.000000
CHANNELS 3 Zrotation Xrotation Yrotation
									End Site
									{
OFFSET 0 -0.574610 0.574610
									}
								}
							}
						}
					}
				}
			}
		}
	}
}
MOTION
Frames: 5
Frame Time: 0.008333333333333333
9.789578 15.703165 -4.688522 29.410325 63.229542 35.206984 0.000000 0.000000 0.000000 -20.786551 13.124711 26.814693 0.129324 2.285564 6.296842 -0.008472 13.717409 9.555956 5.586754 -14.007016 -43.282789 0.000000 0.000000 0.000000 13.116860 16.097198 -53.108606 -12.845553 -18.711579 68.630184 -0.325570 1.620720 -10.336365 -0.572586 4.837565 -13.447441 -14.654889 -3.378434 11.772993 0.355934 -5.807611 5.172140 9.180575 -3.142773 0.516936 -13.562108 -3.544566 -6.067141 18.670541 -3.105517 -8.008801 7.993874 -1.331200 -0.696271 0.000000 0.000000 0.000000 13.083049 4.526059 -40.288539 83.164634 -59.817631 54.084189 39.172216 0.588645 -16.912427 0.000000 0.000000 0.000000 -7.125000 0.000000 0.000000 11.541396 51.035552 -1.735697 0.000000 0.000000 0.000000 -4.855763 -15.239427 23.450632 -133.271902 -51.575588 -96.411445 -42.983696 -42.465560 -35.098113 0.000000 0.000000 0.000000 7.125000 0.000000 0.000000 -5.150757 -13.719091 -6.249465
9.937735 15.717095 -4.638365 29.395974 63.124227 35.299351 0.000000 0.000000 0.000000 -20.683853 13.522134 27.592078 0.104573 2.004091 5.519527 -0.043016 14.470628 9.723068 5.351863 -13.750248 -42.283366 0.000000 0.000000 0.000000 13.097181 16.144994 -53.075417 -12.357259 -18.506136 67.082751 -0.325710 1.746159 -10.316896 -0.623958 5.037094 -14.018122 -14.586268 -3.461102 11.584378 0.393003 -5.888432 5.116421 9.172324 -3.185918 0.576208 -13.570125 -3.390099 -6.021822 18.523623 -2.911550 -7.956003 7.952622 -1.234999 -0.725814 0.000000 0.000000 0.000000 13.427346 4.870777 -40.451818 83.997903 -59.852292 54.804967 39.297047 0.463136 -16.871082 0.000000 0.000000 0.000000 -7.125000 0.000000 0.000000 11.672187 51.011455 -1.748692 0.000000 0.000000 0.000000 -5.174888 -15.420282 23.920695 -134.104306 -51.173164 -97.057736 -42.456487 -41.455480 -34.891338 0.000000 0.000000 0.000000 7.125000 0.000000 0.000000 -4.939472 -13.273872 -5.965796
10.085892 15.731025 -4.588208 29.381624 63.018911 35.391718 0.000000 0.000000 0.000000 -20.581155 13.919556 28.369464 0.079822 1.722619 4.742211 -0.077561 15.223847 9.890180 5.116971 -13.493480 -41.283944 0.000000 0.000000 0.000000 13.077501 16.192791 -53.042228 -11.868965 -18.300694 65.535319 -0.325851 1.871598 -10.297427 -0.675331 5.236623 -14.588803 -14.517647 -3.543769 11.395764 0.430071 -5.969253 5.060701 9.164074 -3.229063 0.635480 -13.578142 -3.235631 -5.976503 18.376705 -2.717583 -7.903205 7.911370 -1.138799 -0.755356 0.000000 0.000000 0.000000 13.771643 5.215495 -40.615097 84.831172 -59.886953 55.525745 39.421878 0.337627 -16.829736 0.000000 0.000000 0.000000 -7.125000 0.000000 0.000000 11.802978 50.987358 -1.761687 0.000000 0.000000 0.000000 -5.494013 -15.601137 24.390759 -134.936710 -50.770740 -97.704026 -41.929278 -40.445400 -34.684563 0.000000 0.000000 0.000000 7.125000 0.000000 0.000000 -4.728186 -12.828653 -5.682126
10.234049 15.744955 -4.538051 29.367273 62.913596 35.484085 0.000000 0.000000 0.000000 -20.478458 14.316978 29.146850 0.055071 1.441146 3.964896 -0.112105 15.977065 10.057291 4.882080 -13.236712 -40.284522 0.000000 0.000000 0.000000 13.057822 16.240587 -53.009040 -11.380672 -18.095252 63.987887 -0.325991 1.997037 -10.277958 -0.726703 5.436152 -15.159484 -14.449026 -3.626437 11.207150 0.467140 -6.050075 5.004982 9.155824 -3.272208 0.694752 -13.586158 -3.081164 -5.931184 18.229786 -2.523617 -7.850407 7.870118 -1.042599 -0.784899 0.000000 0.000000 0.000000 14.115940 5.560213 -40.778376 85.664441 -59.921614 56.246523 39.546710 0.212118 -16.788390 0.000000 0.000000 0.000000 -7.125000 0.000000 0.000000 11.933770 50.963261 -1.774682 0.000000 0.000000 0.000000 -5.813138 -15.781992 24.860822 -135.769114 -50.368316 -98.350317 -41.402070 -39.435320 -34.477789 0.000000 0.000000 0.000000 7.125000 0.000000 0.000000 -4.516901 -12.383435 -5.398457
10.382465 15.758574 -4.487293 29.351924 62.800590 35.560125 0.000000 0.000000 0.000000 -20.368142 14.722138 29.942742 0.033947 1.158758 3.185826 -0.138974 16.668062 10.270639 4.685987 -13.020860 -39.447158 0.000000 0.000000 0.000000 13.047489 16.280755 -52.946140 -10.899866 -17.878801 62.446737 -0.325350 2.122434 -10.247336 -0.765360 5.586682 -15.589930 -14.389912 -3.704789 11.021490 0.502438 -6.125726 4.957951 9.150078 -3.313791 0.761617 -13.583390 -2.929947 -5.863404 18.089963 -2.332129 -7.835440 7.829699 -0.949276 -0.828187 0.000000 0.000000 0.000000 14.448432 5.907021 -40.919458 86.478985 -59.951214 56.951247 39.649422 -0.025043 -16.694091 0.000000 0.000000 0.000000 -7.125000 0.000000 0.000000 12.036920 50.869733 -1.762598 0.000000 0.000000 0.000000 -6.137216 -15.986404 25.334462 -136.567299 -49.972925 -98.967248 -40.849109 -38.329936 -34.270455 0.000000 0.000000 0.000000 7.125000 0.000000 0.000000 -4.289955 -11.931535 -5.098511
